<mxfile host="app.diagrams.net" agent="Mozilla/5.0 (Windows NT 10.0; Win64; x64; rv:142.0) Gecko/20100101 Firefox/142.0" version="28.2.1">
  <diagram name="PÃ¡gina-1" id="PLe6IrTvwxdaC-7THQaQ">
    <mxGraphModel dx="1486" dy="802" grid="1" gridSize="5" guides="1" tooltips="1" connect="1" arrows="1" fold="1" page="1" pageScale="1" pageWidth="827" pageHeight="1169" math="1" shadow="0">
      <root>
        <mxCell id="0" />
        <mxCell id="1" parent="0" />
        <mxCell id="QoIc9SU_f98SvMXDMJQi-63" value="1" style="rounded=0;whiteSpace=wrap;html=1;rotation=0;strokeWidth=0;fillColor=#DA7557;fontStyle=1;fontColor=#FFFFFF;gradientColor=#AC5D45;gradientDirection=radial;strokeColor=#CB6D51;fontSize=20;" vertex="1" parent="1">
          <mxGeometry x="466" y="200" width="60" height="60" as="geometry" />
        </mxCell>
        <mxCell id="QoIc9SU_f98SvMXDMJQi-64" value="" style="shape=tape;whiteSpace=wrap;html=1;rotation=90;size=0.23333333333333334;strokeColor=none;" vertex="1" parent="1">
          <mxGeometry x="502" y="207" width="66" height="44" as="geometry" />
        </mxCell>
        <mxCell id="QoIc9SU_f98SvMXDMJQi-66" value="2" style="rounded=0;whiteSpace=wrap;html=1;rotation=0;strokeWidth=0;fillColor=#DA7557;fontStyle=1;fontColor=#FFFFFF;gradientColor=#AC5D45;gradientDirection=radial;strokeColor=#CB6D51;fontSize=20;" vertex="1" parent="1">
          <mxGeometry x="396" y="200" width="60" height="60" as="geometry" />
        </mxCell>
        <mxCell id="QoIc9SU_f98SvMXDMJQi-67" value="3" style="rounded=0;whiteSpace=wrap;html=1;rotation=0;strokeWidth=0;fillColor=#DA7557;fontStyle=1;fontColor=#FFFFFF;gradientColor=#AC5D45;gradientDirection=radial;strokeColor=#CB6D51;fontSize=20;" vertex="1" parent="1">
          <mxGeometry x="326" y="200" width="60" height="60" as="geometry" />
        </mxCell>
        <mxCell id="QoIc9SU_f98SvMXDMJQi-68" value="4" style="rounded=0;whiteSpace=wrap;html=1;rotation=0;strokeWidth=0;fillColor=#DA7557;fontStyle=1;fontColor=#FFFFFF;gradientColor=#AC5D45;gradientDirection=radial;strokeColor=#CB6D51;fontSize=20;" vertex="1" parent="1">
          <mxGeometry x="256" y="200" width="60" height="60" as="geometry" />
        </mxCell>
        <mxCell id="QoIc9SU_f98SvMXDMJQi-69" value="5" style="rounded=0;whiteSpace=wrap;html=1;rotation=0;strokeWidth=0;fillColor=#DA7557;fontStyle=1;fontColor=#FFFFFF;gradientColor=#AC5D45;gradientDirection=radial;strokeColor=#CB6D51;fontSize=20;" vertex="1" parent="1">
          <mxGeometry x="186" y="200" width="60" height="60" as="geometry" />
        </mxCell>
        <mxCell id="QoIc9SU_f98SvMXDMJQi-71" value="escova" style="rounded=0;whiteSpace=wrap;html=1;rotation=0;strokeWidth=0;fillColor=#666666;fontStyle=1;fontColor=#FFFFFF;" vertex="1" parent="1">
          <mxGeometry x="396" y="260" width="60" height="60" as="geometry" />
        </mxCell>
        <mxCell id="QoIc9SU_f98SvMXDMJQi-155" value="" style="group;rotation=-180;" vertex="1" connectable="0" parent="1">
          <mxGeometry x="144" y="124" width="424" height="84" as="geometry" />
        </mxCell>
        <mxCell id="QoIc9SU_f98SvMXDMJQi-5" style="rounded=1;orthogonalLoop=1;jettySize=auto;html=1;endArrow=none;endFill=0;curved=0;strokeWidth=1.5;" edge="1" parent="QoIc9SU_f98SvMXDMJQi-155">
          <mxGeometry relative="1" as="geometry">
            <mxPoint x="283" y="77" as="targetPoint" />
            <mxPoint x="283" y="37" as="sourcePoint" />
            <Array as="points">
              <mxPoint x="283" y="77" />
            </Array>
          </mxGeometry>
        </mxCell>
        <mxCell id="QoIc9SU_f98SvMXDMJQi-6" style="rounded=0;orthogonalLoop=1;jettySize=auto;html=1;exitX=1;exitY=0.645;exitDx=0;exitDy=0;exitPerimeter=0;endArrow=none;endFill=0;edgeStyle=orthogonalEdgeStyle;curved=1;strokeWidth=1.5;" edge="1" parent="QoIc9SU_f98SvMXDMJQi-155" source="QoIc9SU_f98SvMXDMJQi-3">
          <mxGeometry relative="1" as="geometry">
            <mxPoint x="353" y="37" as="targetPoint" />
          </mxGeometry>
        </mxCell>
        <mxCell id="QoIc9SU_f98SvMXDMJQi-8" style="edgeStyle=orthogonalEdgeStyle;rounded=0;orthogonalLoop=1;jettySize=auto;html=1;exitX=0;exitY=0.645;exitDx=0;exitDy=0;exitPerimeter=0;curved=1;endArrow=none;endFill=0;strokeWidth=1.5;" edge="1" parent="QoIc9SU_f98SvMXDMJQi-155" source="QoIc9SU_f98SvMXDMJQi-3">
          <mxGeometry relative="1" as="geometry">
            <mxPoint x="283" y="37" as="targetPoint" />
          </mxGeometry>
        </mxCell>
        <mxCell id="QoIc9SU_f98SvMXDMJQi-3" value="" style="pointerEvents=1;verticalLabelPosition=bottom;shadow=0;dashed=0;align=center;html=1;verticalAlign=top;shape=mxgraph.electrical.inductors.inductor_5;direction=west;strokeWidth=1.5;rotation=-180;" vertex="1" parent="QoIc9SU_f98SvMXDMJQi-155">
          <mxGeometry x="293" y="8" width="50" height="14" as="geometry" />
        </mxCell>
        <mxCell id="QoIc9SU_f98SvMXDMJQi-10" value="" style="rounded=0;orthogonalLoop=1;jettySize=auto;html=1;exitX=1;exitY=0.645;exitDx=0;exitDy=0;exitPerimeter=0;endArrow=none;endFill=0;strokeWidth=1.5;" edge="1" parent="QoIc9SU_f98SvMXDMJQi-155">
          <mxGeometry relative="1" as="geometry">
            <mxPoint x="353" y="77" as="targetPoint" />
            <mxPoint x="353" y="37" as="sourcePoint" />
          </mxGeometry>
        </mxCell>
        <mxCell id="QoIc9SU_f98SvMXDMJQi-24" style="rounded=1;orthogonalLoop=1;jettySize=auto;html=1;endArrow=none;endFill=0;curved=0;strokeWidth=1.5;" edge="1" parent="QoIc9SU_f98SvMXDMJQi-155">
          <mxGeometry relative="1" as="geometry">
            <mxPoint x="213" y="76" as="targetPoint" />
            <mxPoint x="213" y="36" as="sourcePoint" />
            <Array as="points">
              <mxPoint x="213" y="76" />
            </Array>
          </mxGeometry>
        </mxCell>
        <mxCell id="QoIc9SU_f98SvMXDMJQi-25" style="rounded=0;orthogonalLoop=1;jettySize=auto;html=1;exitX=1;exitY=0.645;exitDx=0;exitDy=0;exitPerimeter=0;endArrow=none;endFill=0;edgeStyle=orthogonalEdgeStyle;curved=1;strokeWidth=1.5;" edge="1" source="QoIc9SU_f98SvMXDMJQi-27" parent="QoIc9SU_f98SvMXDMJQi-155">
          <mxGeometry relative="1" as="geometry">
            <mxPoint x="283" y="36" as="targetPoint" />
          </mxGeometry>
        </mxCell>
        <mxCell id="QoIc9SU_f98SvMXDMJQi-26" style="edgeStyle=orthogonalEdgeStyle;rounded=0;orthogonalLoop=1;jettySize=auto;html=1;exitX=0;exitY=0.645;exitDx=0;exitDy=0;exitPerimeter=0;curved=1;endArrow=none;endFill=0;strokeWidth=1.5;" edge="1" source="QoIc9SU_f98SvMXDMJQi-27" parent="QoIc9SU_f98SvMXDMJQi-155">
          <mxGeometry relative="1" as="geometry">
            <mxPoint x="213" y="36" as="targetPoint" />
          </mxGeometry>
        </mxCell>
        <mxCell id="QoIc9SU_f98SvMXDMJQi-27" value="" style="pointerEvents=1;verticalLabelPosition=bottom;shadow=0;dashed=0;align=center;html=1;verticalAlign=top;shape=mxgraph.electrical.inductors.inductor_5;direction=west;strokeWidth=1.5;rotation=-180;" vertex="1" parent="QoIc9SU_f98SvMXDMJQi-155">
          <mxGeometry x="223" y="8" width="50" height="14" as="geometry" />
        </mxCell>
        <mxCell id="QoIc9SU_f98SvMXDMJQi-28" value="" style="rounded=0;orthogonalLoop=1;jettySize=auto;html=1;exitX=1;exitY=0.645;exitDx=0;exitDy=0;exitPerimeter=0;endArrow=none;endFill=0;strokeWidth=1.5;" edge="1" parent="QoIc9SU_f98SvMXDMJQi-155">
          <mxGeometry relative="1" as="geometry">
            <mxPoint x="283" y="76" as="targetPoint" />
            <mxPoint x="283" y="36" as="sourcePoint" />
          </mxGeometry>
        </mxCell>
        <mxCell id="QoIc9SU_f98SvMXDMJQi-30" style="rounded=1;orthogonalLoop=1;jettySize=auto;html=1;endArrow=none;endFill=0;curved=0;strokeWidth=1.5;" edge="1" parent="QoIc9SU_f98SvMXDMJQi-155">
          <mxGeometry relative="1" as="geometry">
            <mxPoint x="143" y="77" as="targetPoint" />
            <mxPoint x="143" y="37" as="sourcePoint" />
            <Array as="points">
              <mxPoint x="143" y="77" />
            </Array>
          </mxGeometry>
        </mxCell>
        <mxCell id="QoIc9SU_f98SvMXDMJQi-31" style="rounded=0;orthogonalLoop=1;jettySize=auto;html=1;exitX=1;exitY=0.645;exitDx=0;exitDy=0;exitPerimeter=0;endArrow=none;endFill=0;edgeStyle=orthogonalEdgeStyle;curved=1;strokeWidth=1.5;" edge="1" source="QoIc9SU_f98SvMXDMJQi-33" parent="QoIc9SU_f98SvMXDMJQi-155">
          <mxGeometry relative="1" as="geometry">
            <mxPoint x="213" y="37" as="targetPoint" />
          </mxGeometry>
        </mxCell>
        <mxCell id="QoIc9SU_f98SvMXDMJQi-32" style="edgeStyle=orthogonalEdgeStyle;rounded=0;orthogonalLoop=1;jettySize=auto;html=1;exitX=0;exitY=0.645;exitDx=0;exitDy=0;exitPerimeter=0;curved=1;endArrow=none;endFill=0;strokeWidth=1.5;" edge="1" source="QoIc9SU_f98SvMXDMJQi-33" parent="QoIc9SU_f98SvMXDMJQi-155">
          <mxGeometry relative="1" as="geometry">
            <mxPoint x="143" y="37" as="targetPoint" />
          </mxGeometry>
        </mxCell>
        <mxCell id="QoIc9SU_f98SvMXDMJQi-33" value="" style="pointerEvents=1;verticalLabelPosition=bottom;shadow=0;dashed=0;align=center;html=1;verticalAlign=top;shape=mxgraph.electrical.inductors.inductor_5;direction=west;strokeWidth=1.5;rotation=-180;" vertex="1" parent="QoIc9SU_f98SvMXDMJQi-155">
          <mxGeometry x="153" y="8" width="50" height="14" as="geometry" />
        </mxCell>
        <mxCell id="QoIc9SU_f98SvMXDMJQi-34" value="" style="rounded=0;orthogonalLoop=1;jettySize=auto;html=1;exitX=1;exitY=0.645;exitDx=0;exitDy=0;exitPerimeter=0;endArrow=none;endFill=0;strokeWidth=1.5;" edge="1" parent="QoIc9SU_f98SvMXDMJQi-155">
          <mxGeometry relative="1" as="geometry">
            <mxPoint x="213" y="77" as="targetPoint" />
            <mxPoint x="213" y="37" as="sourcePoint" />
          </mxGeometry>
        </mxCell>
        <mxCell id="QoIc9SU_f98SvMXDMJQi-36" style="rounded=1;orthogonalLoop=1;jettySize=auto;html=1;endArrow=none;endFill=0;curved=0;strokeWidth=1.5;" edge="1" parent="QoIc9SU_f98SvMXDMJQi-155">
          <mxGeometry relative="1" as="geometry">
            <mxPoint x="73" y="77" as="targetPoint" />
            <mxPoint x="73" y="37" as="sourcePoint" />
            <Array as="points">
              <mxPoint x="73" y="77" />
            </Array>
          </mxGeometry>
        </mxCell>
        <mxCell id="QoIc9SU_f98SvMXDMJQi-37" style="rounded=0;orthogonalLoop=1;jettySize=auto;html=1;exitX=1;exitY=0.645;exitDx=0;exitDy=0;exitPerimeter=0;endArrow=none;endFill=0;edgeStyle=orthogonalEdgeStyle;curved=1;strokeWidth=1.5;" edge="1" source="QoIc9SU_f98SvMXDMJQi-39" parent="QoIc9SU_f98SvMXDMJQi-155">
          <mxGeometry relative="1" as="geometry">
            <mxPoint x="143" y="37" as="targetPoint" />
          </mxGeometry>
        </mxCell>
        <mxCell id="QoIc9SU_f98SvMXDMJQi-38" style="edgeStyle=orthogonalEdgeStyle;rounded=0;orthogonalLoop=1;jettySize=auto;html=1;exitX=0;exitY=0.645;exitDx=0;exitDy=0;exitPerimeter=0;curved=1;endArrow=none;endFill=0;strokeWidth=1.5;" edge="1" source="QoIc9SU_f98SvMXDMJQi-39" parent="QoIc9SU_f98SvMXDMJQi-155">
          <mxGeometry relative="1" as="geometry">
            <mxPoint x="73" y="37" as="targetPoint" />
          </mxGeometry>
        </mxCell>
        <mxCell id="QoIc9SU_f98SvMXDMJQi-39" value="" style="pointerEvents=1;verticalLabelPosition=bottom;shadow=0;dashed=0;align=center;html=1;verticalAlign=top;shape=mxgraph.electrical.inductors.inductor_5;direction=west;strokeWidth=1.5;rotation=-180;" vertex="1" parent="QoIc9SU_f98SvMXDMJQi-155">
          <mxGeometry x="83" y="8" width="50" height="14" as="geometry" />
        </mxCell>
        <mxCell id="QoIc9SU_f98SvMXDMJQi-40" value="" style="rounded=0;orthogonalLoop=1;jettySize=auto;html=1;exitX=1;exitY=0.645;exitDx=0;exitDy=0;exitPerimeter=0;endArrow=none;endFill=0;strokeWidth=1.5;" edge="1" parent="QoIc9SU_f98SvMXDMJQi-155">
          <mxGeometry relative="1" as="geometry">
            <mxPoint x="143" y="77" as="targetPoint" />
            <mxPoint x="143" y="37" as="sourcePoint" />
          </mxGeometry>
        </mxCell>
        <mxCell id="QoIc9SU_f98SvMXDMJQi-47" style="rounded=1;orthogonalLoop=1;jettySize=auto;html=1;endArrow=none;endFill=0;curved=0;strokeWidth=1.5;" edge="1" parent="QoIc9SU_f98SvMXDMJQi-155">
          <mxGeometry relative="1" as="geometry">
            <mxPoint x="353" y="77" as="targetPoint" />
            <mxPoint x="353" y="37" as="sourcePoint" />
            <Array as="points">
              <mxPoint x="353" y="77" />
            </Array>
          </mxGeometry>
        </mxCell>
        <mxCell id="QoIc9SU_f98SvMXDMJQi-48" style="rounded=0;orthogonalLoop=1;jettySize=auto;html=1;exitX=1;exitY=0.645;exitDx=0;exitDy=0;exitPerimeter=0;endArrow=none;endFill=0;edgeStyle=orthogonalEdgeStyle;curved=1;strokeWidth=1.5;" edge="1" source="QoIc9SU_f98SvMXDMJQi-50" parent="QoIc9SU_f98SvMXDMJQi-155">
          <mxGeometry relative="1" as="geometry">
            <mxPoint x="423" y="37" as="targetPoint" />
          </mxGeometry>
        </mxCell>
        <mxCell id="QoIc9SU_f98SvMXDMJQi-49" style="edgeStyle=orthogonalEdgeStyle;rounded=0;orthogonalLoop=1;jettySize=auto;html=1;exitX=0;exitY=0.645;exitDx=0;exitDy=0;exitPerimeter=0;curved=1;endArrow=none;endFill=0;strokeWidth=1.5;" edge="1" source="QoIc9SU_f98SvMXDMJQi-50" parent="QoIc9SU_f98SvMXDMJQi-155">
          <mxGeometry relative="1" as="geometry">
            <mxPoint x="353" y="37" as="targetPoint" />
          </mxGeometry>
        </mxCell>
        <mxCell id="QoIc9SU_f98SvMXDMJQi-50" value="" style="pointerEvents=1;verticalLabelPosition=bottom;shadow=0;dashed=0;align=center;html=1;verticalAlign=top;shape=mxgraph.electrical.inductors.inductor_5;direction=west;strokeWidth=1.5;rotation=-180;" vertex="1" parent="QoIc9SU_f98SvMXDMJQi-155">
          <mxGeometry x="363" y="8" width="50" height="14" as="geometry" />
        </mxCell>
        <mxCell id="QoIc9SU_f98SvMXDMJQi-51" value="" style="rounded=0;orthogonalLoop=1;jettySize=auto;html=1;exitX=1;exitY=0.645;exitDx=0;exitDy=0;exitPerimeter=0;endArrow=none;endFill=0;strokeWidth=1.5;" edge="1" parent="QoIc9SU_f98SvMXDMJQi-155">
          <mxGeometry relative="1" as="geometry">
            <mxPoint x="423" y="77" as="targetPoint" />
            <mxPoint x="423" y="37" as="sourcePoint" />
          </mxGeometry>
        </mxCell>
        <mxCell id="QoIc9SU_f98SvMXDMJQi-55" value="" style="rounded=1;whiteSpace=wrap;html=1;strokeColor=none;strokeWidth=1.5;rotation=-180;" vertex="1" parent="QoIc9SU_f98SvMXDMJQi-155">
          <mxGeometry x="386" width="38" height="84" as="geometry" />
        </mxCell>
        <mxCell id="QoIc9SU_f98SvMXDMJQi-56" style="rounded=1;orthogonalLoop=1;jettySize=auto;html=1;endArrow=none;endFill=0;curved=0;strokeWidth=1.5;" edge="1" parent="QoIc9SU_f98SvMXDMJQi-155">
          <mxGeometry relative="1" as="geometry">
            <mxPoint x="3" y="77" as="targetPoint" />
            <mxPoint x="3" y="37" as="sourcePoint" />
            <Array as="points">
              <mxPoint x="3" y="77" />
            </Array>
          </mxGeometry>
        </mxCell>
        <mxCell id="QoIc9SU_f98SvMXDMJQi-57" style="rounded=0;orthogonalLoop=1;jettySize=auto;html=1;exitX=1;exitY=0.645;exitDx=0;exitDy=0;exitPerimeter=0;endArrow=none;endFill=0;edgeStyle=orthogonalEdgeStyle;curved=1;strokeWidth=1.5;" edge="1" source="QoIc9SU_f98SvMXDMJQi-59" parent="QoIc9SU_f98SvMXDMJQi-155">
          <mxGeometry relative="1" as="geometry">
            <mxPoint x="73" y="37" as="targetPoint" />
          </mxGeometry>
        </mxCell>
        <mxCell id="QoIc9SU_f98SvMXDMJQi-58" style="edgeStyle=orthogonalEdgeStyle;rounded=0;orthogonalLoop=1;jettySize=auto;html=1;exitX=0;exitY=0.645;exitDx=0;exitDy=0;exitPerimeter=0;curved=1;endArrow=none;endFill=0;strokeWidth=1.5;" edge="1" source="QoIc9SU_f98SvMXDMJQi-59" parent="QoIc9SU_f98SvMXDMJQi-155">
          <mxGeometry relative="1" as="geometry">
            <mxPoint x="3" y="37" as="targetPoint" />
          </mxGeometry>
        </mxCell>
        <mxCell id="QoIc9SU_f98SvMXDMJQi-59" value="" style="pointerEvents=1;verticalLabelPosition=bottom;shadow=0;dashed=0;align=center;html=1;verticalAlign=top;shape=mxgraph.electrical.inductors.inductor_5;direction=west;strokeWidth=1.5;rotation=-180;" vertex="1" parent="QoIc9SU_f98SvMXDMJQi-155">
          <mxGeometry x="13" y="8" width="50" height="14" as="geometry" />
        </mxCell>
        <mxCell id="QoIc9SU_f98SvMXDMJQi-60" value="" style="rounded=0;orthogonalLoop=1;jettySize=auto;html=1;exitX=1;exitY=0.645;exitDx=0;exitDy=0;exitPerimeter=0;endArrow=none;endFill=0;strokeWidth=1.5;" edge="1" parent="QoIc9SU_f98SvMXDMJQi-155">
          <mxGeometry relative="1" as="geometry">
            <mxPoint x="73" y="77" as="targetPoint" />
            <mxPoint x="73" y="37" as="sourcePoint" />
          </mxGeometry>
        </mxCell>
        <mxCell id="QoIc9SU_f98SvMXDMJQi-61" value="" style="rounded=1;whiteSpace=wrap;html=1;strokeColor=none;strokeWidth=1.5;rotation=-180;" vertex="1" parent="QoIc9SU_f98SvMXDMJQi-155">
          <mxGeometry y="3" width="40" height="76" as="geometry" />
        </mxCell>
        <mxCell id="QoIc9SU_f98SvMXDMJQi-201" style="rounded=0;orthogonalLoop=1;jettySize=auto;html=1;exitX=1;exitY=0.645;exitDx=0;exitDy=0;exitPerimeter=0;endArrow=none;endFill=0;edgeStyle=orthogonalEdgeStyle;curved=1;strokeWidth=1.5;" edge="1" parent="QoIc9SU_f98SvMXDMJQi-155">
          <mxGeometry relative="1" as="geometry">
            <mxPoint x="908" y="37" as="targetPoint" />
            <mxPoint x="898" y="17" as="sourcePoint" />
          </mxGeometry>
        </mxCell>
        <mxCell id="QoIc9SU_f98SvMXDMJQi-202" value="" style="rounded=0;orthogonalLoop=1;jettySize=auto;html=1;exitX=1;exitY=0.645;exitDx=0;exitDy=0;exitPerimeter=0;endArrow=none;endFill=0;strokeWidth=1.5;" edge="1" parent="QoIc9SU_f98SvMXDMJQi-155">
          <mxGeometry relative="1" as="geometry">
            <mxPoint x="908" y="77" as="targetPoint" />
            <mxPoint x="908" y="37" as="sourcePoint" />
          </mxGeometry>
        </mxCell>
        <mxCell id="QoIc9SU_f98SvMXDMJQi-156" value="" style="shape=tape;whiteSpace=wrap;html=1;rotation=90;size=0.23333333333333334;strokeColor=none;" vertex="1" parent="1">
          <mxGeometry x="144" y="208" width="66" height="44" as="geometry" />
        </mxCell>
        <mxCell id="QoIc9SU_f98SvMXDMJQi-157" value="1" style="rounded=0;whiteSpace=wrap;html=1;rotation=0;strokeWidth=0;fillColor=#DA7557;fontStyle=1;fontColor=#FFFFFF;gradientColor=#AC5D45;gradientDirection=radial;strokeColor=#CB6D51;fontSize=20;" vertex="1" parent="1">
          <mxGeometry x="949" y="200" width="60" height="60" as="geometry" />
        </mxCell>
        <mxCell id="QoIc9SU_f98SvMXDMJQi-158" value="" style="shape=tape;whiteSpace=wrap;html=1;rotation=90;size=0.23333333333333334;strokeColor=none;" vertex="1" parent="1">
          <mxGeometry x="985" y="207" width="66" height="44" as="geometry" />
        </mxCell>
        <mxCell id="QoIc9SU_f98SvMXDMJQi-159" value="2" style="rounded=0;whiteSpace=wrap;html=1;rotation=0;strokeWidth=0;fillColor=#DA7557;fontStyle=1;fontColor=#FFFFFF;gradientColor=#AC5D45;gradientDirection=radial;strokeColor=#CB6D51;fontSize=20;" vertex="1" parent="1">
          <mxGeometry x="879" y="200" width="60" height="60" as="geometry" />
        </mxCell>
        <mxCell id="QoIc9SU_f98SvMXDMJQi-160" value="3" style="rounded=0;whiteSpace=wrap;html=1;rotation=0;strokeWidth=0;fillColor=#DA7557;fontStyle=1;fontColor=#FFFFFF;gradientColor=#AC5D45;gradientDirection=radial;strokeColor=#CB6D51;fontSize=20;" vertex="1" parent="1">
          <mxGeometry x="809" y="200" width="60" height="60" as="geometry" />
        </mxCell>
        <mxCell id="QoIc9SU_f98SvMXDMJQi-161" value="4" style="rounded=0;whiteSpace=wrap;html=1;rotation=0;strokeWidth=0;fillColor=#DA7557;fontStyle=1;fontColor=#FFFFFF;gradientColor=#AC5D45;gradientDirection=radial;strokeColor=#CB6D51;fontSize=20;" vertex="1" parent="1">
          <mxGeometry x="739" y="200" width="60" height="60" as="geometry" />
        </mxCell>
        <mxCell id="QoIc9SU_f98SvMXDMJQi-162" value="5" style="rounded=0;whiteSpace=wrap;html=1;rotation=0;strokeWidth=0;fillColor=#DA7557;fontStyle=1;fontColor=#FFFFFF;gradientColor=#AC5D45;gradientDirection=radial;strokeColor=#CB6D51;fontSize=20;" vertex="1" parent="1">
          <mxGeometry x="669" y="200" width="60" height="60" as="geometry" />
        </mxCell>
        <mxCell id="QoIc9SU_f98SvMXDMJQi-163" value="escova" style="rounded=0;whiteSpace=wrap;html=1;rotation=0;strokeWidth=0;fillColor=#666666;fontStyle=1;fontColor=#FFFFFF;" vertex="1" parent="1">
          <mxGeometry x="843" y="260" width="60" height="60" as="geometry" />
        </mxCell>
        <mxCell id="QoIc9SU_f98SvMXDMJQi-164" value="" style="group;rotation=-180;" vertex="1" connectable="0" parent="1">
          <mxGeometry x="627" y="124" width="424" height="84" as="geometry" />
        </mxCell>
        <mxCell id="QoIc9SU_f98SvMXDMJQi-165" style="rounded=1;orthogonalLoop=1;jettySize=auto;html=1;endArrow=none;endFill=0;curved=0;strokeWidth=1.5;" edge="1" parent="QoIc9SU_f98SvMXDMJQi-164">
          <mxGeometry relative="1" as="geometry">
            <mxPoint x="283" y="77" as="targetPoint" />
            <mxPoint x="283" y="37" as="sourcePoint" />
            <Array as="points">
              <mxPoint x="283" y="77" />
            </Array>
          </mxGeometry>
        </mxCell>
        <mxCell id="QoIc9SU_f98SvMXDMJQi-166" style="rounded=0;orthogonalLoop=1;jettySize=auto;html=1;exitX=1;exitY=0.645;exitDx=0;exitDy=0;exitPerimeter=0;endArrow=none;endFill=0;edgeStyle=orthogonalEdgeStyle;curved=1;strokeWidth=1.5;" edge="1" parent="QoIc9SU_f98SvMXDMJQi-164" source="QoIc9SU_f98SvMXDMJQi-168">
          <mxGeometry relative="1" as="geometry">
            <mxPoint x="353" y="37" as="targetPoint" />
          </mxGeometry>
        </mxCell>
        <mxCell id="QoIc9SU_f98SvMXDMJQi-167" style="edgeStyle=orthogonalEdgeStyle;rounded=0;orthogonalLoop=1;jettySize=auto;html=1;exitX=0;exitY=0.645;exitDx=0;exitDy=0;exitPerimeter=0;curved=1;endArrow=none;endFill=0;strokeWidth=1.5;" edge="1" parent="QoIc9SU_f98SvMXDMJQi-164" source="QoIc9SU_f98SvMXDMJQi-168">
          <mxGeometry relative="1" as="geometry">
            <mxPoint x="283" y="37" as="targetPoint" />
          </mxGeometry>
        </mxCell>
        <mxCell id="QoIc9SU_f98SvMXDMJQi-168" value="" style="pointerEvents=1;verticalLabelPosition=bottom;shadow=0;dashed=0;align=center;html=1;verticalAlign=top;shape=mxgraph.electrical.inductors.inductor_5;direction=west;strokeWidth=1.5;rotation=-180;" vertex="1" parent="QoIc9SU_f98SvMXDMJQi-164">
          <mxGeometry x="293" y="8" width="50" height="14" as="geometry" />
        </mxCell>
        <mxCell id="QoIc9SU_f98SvMXDMJQi-169" value="" style="rounded=0;orthogonalLoop=1;jettySize=auto;html=1;exitX=1;exitY=0.645;exitDx=0;exitDy=0;exitPerimeter=0;endArrow=none;endFill=0;strokeWidth=1.5;" edge="1" parent="QoIc9SU_f98SvMXDMJQi-164">
          <mxGeometry relative="1" as="geometry">
            <mxPoint x="353" y="77" as="targetPoint" />
            <mxPoint x="353" y="37" as="sourcePoint" />
          </mxGeometry>
        </mxCell>
        <mxCell id="QoIc9SU_f98SvMXDMJQi-170" style="rounded=1;orthogonalLoop=1;jettySize=auto;html=1;endArrow=none;endFill=0;curved=0;strokeWidth=1.5;" edge="1" parent="QoIc9SU_f98SvMXDMJQi-164">
          <mxGeometry relative="1" as="geometry">
            <mxPoint x="213" y="76" as="targetPoint" />
            <mxPoint x="213" y="36" as="sourcePoint" />
            <Array as="points">
              <mxPoint x="213" y="76" />
            </Array>
          </mxGeometry>
        </mxCell>
        <mxCell id="QoIc9SU_f98SvMXDMJQi-171" style="rounded=0;orthogonalLoop=1;jettySize=auto;html=1;exitX=1;exitY=0.645;exitDx=0;exitDy=0;exitPerimeter=0;endArrow=none;endFill=0;edgeStyle=orthogonalEdgeStyle;curved=1;strokeWidth=1.5;" edge="1" parent="QoIc9SU_f98SvMXDMJQi-164" source="QoIc9SU_f98SvMXDMJQi-173">
          <mxGeometry relative="1" as="geometry">
            <mxPoint x="283" y="36" as="targetPoint" />
          </mxGeometry>
        </mxCell>
        <mxCell id="QoIc9SU_f98SvMXDMJQi-172" style="edgeStyle=orthogonalEdgeStyle;rounded=0;orthogonalLoop=1;jettySize=auto;html=1;exitX=0;exitY=0.645;exitDx=0;exitDy=0;exitPerimeter=0;curved=1;endArrow=none;endFill=0;strokeWidth=1.5;" edge="1" parent="QoIc9SU_f98SvMXDMJQi-164" source="QoIc9SU_f98SvMXDMJQi-173">
          <mxGeometry relative="1" as="geometry">
            <mxPoint x="213" y="36" as="targetPoint" />
          </mxGeometry>
        </mxCell>
        <mxCell id="QoIc9SU_f98SvMXDMJQi-173" value="" style="pointerEvents=1;verticalLabelPosition=bottom;shadow=0;dashed=0;align=center;html=1;verticalAlign=top;shape=mxgraph.electrical.inductors.inductor_5;direction=west;strokeWidth=1.5;rotation=-180;" vertex="1" parent="QoIc9SU_f98SvMXDMJQi-164">
          <mxGeometry x="223" y="8" width="50" height="14" as="geometry" />
        </mxCell>
        <mxCell id="QoIc9SU_f98SvMXDMJQi-174" value="" style="rounded=0;orthogonalLoop=1;jettySize=auto;html=1;exitX=1;exitY=0.645;exitDx=0;exitDy=0;exitPerimeter=0;endArrow=none;endFill=0;strokeWidth=1.5;" edge="1" parent="QoIc9SU_f98SvMXDMJQi-164">
          <mxGeometry relative="1" as="geometry">
            <mxPoint x="283" y="76" as="targetPoint" />
            <mxPoint x="283" y="36" as="sourcePoint" />
          </mxGeometry>
        </mxCell>
        <mxCell id="QoIc9SU_f98SvMXDMJQi-175" style="rounded=1;orthogonalLoop=1;jettySize=auto;html=1;endArrow=none;endFill=0;curved=0;strokeWidth=1.5;" edge="1" parent="QoIc9SU_f98SvMXDMJQi-164">
          <mxGeometry relative="1" as="geometry">
            <mxPoint x="143" y="77" as="targetPoint" />
            <mxPoint x="143" y="37" as="sourcePoint" />
            <Array as="points">
              <mxPoint x="143" y="77" />
            </Array>
          </mxGeometry>
        </mxCell>
        <mxCell id="QoIc9SU_f98SvMXDMJQi-176" style="rounded=0;orthogonalLoop=1;jettySize=auto;html=1;exitX=1;exitY=0.645;exitDx=0;exitDy=0;exitPerimeter=0;endArrow=none;endFill=0;edgeStyle=orthogonalEdgeStyle;curved=1;strokeWidth=1.5;" edge="1" parent="QoIc9SU_f98SvMXDMJQi-164" source="QoIc9SU_f98SvMXDMJQi-178">
          <mxGeometry relative="1" as="geometry">
            <mxPoint x="213" y="37" as="targetPoint" />
          </mxGeometry>
        </mxCell>
        <mxCell id="QoIc9SU_f98SvMXDMJQi-177" style="edgeStyle=orthogonalEdgeStyle;rounded=0;orthogonalLoop=1;jettySize=auto;html=1;exitX=0;exitY=0.645;exitDx=0;exitDy=0;exitPerimeter=0;curved=1;endArrow=none;endFill=0;strokeWidth=1.5;" edge="1" parent="QoIc9SU_f98SvMXDMJQi-164" source="QoIc9SU_f98SvMXDMJQi-178">
          <mxGeometry relative="1" as="geometry">
            <mxPoint x="143" y="37" as="targetPoint" />
          </mxGeometry>
        </mxCell>
        <mxCell id="QoIc9SU_f98SvMXDMJQi-178" value="" style="pointerEvents=1;verticalLabelPosition=bottom;shadow=0;dashed=0;align=center;html=1;verticalAlign=top;shape=mxgraph.electrical.inductors.inductor_5;direction=west;strokeWidth=1.5;rotation=-180;" vertex="1" parent="QoIc9SU_f98SvMXDMJQi-164">
          <mxGeometry x="153" y="8" width="50" height="14" as="geometry" />
        </mxCell>
        <mxCell id="QoIc9SU_f98SvMXDMJQi-179" value="" style="rounded=0;orthogonalLoop=1;jettySize=auto;html=1;exitX=1;exitY=0.645;exitDx=0;exitDy=0;exitPerimeter=0;endArrow=none;endFill=0;strokeWidth=1.5;" edge="1" parent="QoIc9SU_f98SvMXDMJQi-164">
          <mxGeometry relative="1" as="geometry">
            <mxPoint x="213" y="77" as="targetPoint" />
            <mxPoint x="213" y="37" as="sourcePoint" />
          </mxGeometry>
        </mxCell>
        <mxCell id="QoIc9SU_f98SvMXDMJQi-180" style="rounded=1;orthogonalLoop=1;jettySize=auto;html=1;endArrow=none;endFill=0;curved=0;strokeWidth=1.5;" edge="1" parent="QoIc9SU_f98SvMXDMJQi-164">
          <mxGeometry relative="1" as="geometry">
            <mxPoint x="73" y="77" as="targetPoint" />
            <mxPoint x="73" y="37" as="sourcePoint" />
            <Array as="points">
              <mxPoint x="73" y="77" />
            </Array>
          </mxGeometry>
        </mxCell>
        <mxCell id="QoIc9SU_f98SvMXDMJQi-181" style="rounded=0;orthogonalLoop=1;jettySize=auto;html=1;exitX=1;exitY=0.645;exitDx=0;exitDy=0;exitPerimeter=0;endArrow=none;endFill=0;edgeStyle=orthogonalEdgeStyle;curved=1;strokeWidth=1.5;" edge="1" parent="QoIc9SU_f98SvMXDMJQi-164" source="QoIc9SU_f98SvMXDMJQi-183">
          <mxGeometry relative="1" as="geometry">
            <mxPoint x="143" y="37" as="targetPoint" />
          </mxGeometry>
        </mxCell>
        <mxCell id="QoIc9SU_f98SvMXDMJQi-182" style="edgeStyle=orthogonalEdgeStyle;rounded=0;orthogonalLoop=1;jettySize=auto;html=1;exitX=0;exitY=0.645;exitDx=0;exitDy=0;exitPerimeter=0;curved=1;endArrow=none;endFill=0;strokeWidth=1.5;" edge="1" parent="QoIc9SU_f98SvMXDMJQi-164" source="QoIc9SU_f98SvMXDMJQi-183">
          <mxGeometry relative="1" as="geometry">
            <mxPoint x="73" y="37" as="targetPoint" />
          </mxGeometry>
        </mxCell>
        <mxCell id="QoIc9SU_f98SvMXDMJQi-183" value="" style="pointerEvents=1;verticalLabelPosition=bottom;shadow=0;dashed=0;align=center;html=1;verticalAlign=top;shape=mxgraph.electrical.inductors.inductor_5;direction=west;strokeWidth=1.5;rotation=-180;" vertex="1" parent="QoIc9SU_f98SvMXDMJQi-164">
          <mxGeometry x="83" y="8" width="50" height="14" as="geometry" />
        </mxCell>
        <mxCell id="QoIc9SU_f98SvMXDMJQi-184" value="" style="rounded=0;orthogonalLoop=1;jettySize=auto;html=1;exitX=1;exitY=0.645;exitDx=0;exitDy=0;exitPerimeter=0;endArrow=none;endFill=0;strokeWidth=1.5;" edge="1" parent="QoIc9SU_f98SvMXDMJQi-164">
          <mxGeometry relative="1" as="geometry">
            <mxPoint x="143" y="77" as="targetPoint" />
            <mxPoint x="143" y="37" as="sourcePoint" />
          </mxGeometry>
        </mxCell>
        <mxCell id="QoIc9SU_f98SvMXDMJQi-185" style="rounded=1;orthogonalLoop=1;jettySize=auto;html=1;endArrow=none;endFill=0;curved=0;strokeWidth=1.5;" edge="1" parent="QoIc9SU_f98SvMXDMJQi-164">
          <mxGeometry relative="1" as="geometry">
            <mxPoint x="353" y="77" as="targetPoint" />
            <mxPoint x="353" y="37" as="sourcePoint" />
            <Array as="points">
              <mxPoint x="353" y="77" />
            </Array>
          </mxGeometry>
        </mxCell>
        <mxCell id="QoIc9SU_f98SvMXDMJQi-186" style="rounded=0;orthogonalLoop=1;jettySize=auto;html=1;exitX=1;exitY=0.645;exitDx=0;exitDy=0;exitPerimeter=0;endArrow=none;endFill=0;edgeStyle=orthogonalEdgeStyle;curved=1;strokeWidth=1.5;" edge="1" parent="QoIc9SU_f98SvMXDMJQi-164" source="QoIc9SU_f98SvMXDMJQi-188">
          <mxGeometry relative="1" as="geometry">
            <mxPoint x="423" y="37" as="targetPoint" />
          </mxGeometry>
        </mxCell>
        <mxCell id="QoIc9SU_f98SvMXDMJQi-187" style="edgeStyle=orthogonalEdgeStyle;rounded=0;orthogonalLoop=1;jettySize=auto;html=1;exitX=0;exitY=0.645;exitDx=0;exitDy=0;exitPerimeter=0;curved=1;endArrow=none;endFill=0;strokeWidth=1.5;" edge="1" parent="QoIc9SU_f98SvMXDMJQi-164" source="QoIc9SU_f98SvMXDMJQi-188">
          <mxGeometry relative="1" as="geometry">
            <mxPoint x="353" y="37" as="targetPoint" />
          </mxGeometry>
        </mxCell>
        <mxCell id="QoIc9SU_f98SvMXDMJQi-188" value="" style="pointerEvents=1;verticalLabelPosition=bottom;shadow=0;dashed=0;align=center;html=1;verticalAlign=top;shape=mxgraph.electrical.inductors.inductor_5;direction=west;strokeWidth=1.5;rotation=-180;" vertex="1" parent="QoIc9SU_f98SvMXDMJQi-164">
          <mxGeometry x="363" y="8" width="50" height="14" as="geometry" />
        </mxCell>
        <mxCell id="QoIc9SU_f98SvMXDMJQi-189" value="" style="rounded=0;orthogonalLoop=1;jettySize=auto;html=1;exitX=1;exitY=0.645;exitDx=0;exitDy=0;exitPerimeter=0;endArrow=none;endFill=0;strokeWidth=1.5;" edge="1" parent="QoIc9SU_f98SvMXDMJQi-164">
          <mxGeometry relative="1" as="geometry">
            <mxPoint x="423" y="77" as="targetPoint" />
            <mxPoint x="423" y="37" as="sourcePoint" />
          </mxGeometry>
        </mxCell>
        <mxCell id="QoIc9SU_f98SvMXDMJQi-190" value="" style="rounded=1;whiteSpace=wrap;html=1;strokeColor=none;strokeWidth=1.5;rotation=-180;" vertex="1" parent="QoIc9SU_f98SvMXDMJQi-164">
          <mxGeometry x="389" width="38" height="84" as="geometry" />
        </mxCell>
        <mxCell id="QoIc9SU_f98SvMXDMJQi-191" style="rounded=1;orthogonalLoop=1;jettySize=auto;html=1;endArrow=none;endFill=0;curved=0;strokeWidth=1.5;" edge="1" parent="QoIc9SU_f98SvMXDMJQi-164">
          <mxGeometry relative="1" as="geometry">
            <mxPoint x="3" y="77" as="targetPoint" />
            <mxPoint x="3" y="37" as="sourcePoint" />
            <Array as="points">
              <mxPoint x="3" y="77" />
            </Array>
          </mxGeometry>
        </mxCell>
        <mxCell id="QoIc9SU_f98SvMXDMJQi-192" style="rounded=0;orthogonalLoop=1;jettySize=auto;html=1;exitX=1;exitY=0.645;exitDx=0;exitDy=0;exitPerimeter=0;endArrow=none;endFill=0;edgeStyle=orthogonalEdgeStyle;curved=1;strokeWidth=1.5;" edge="1" parent="QoIc9SU_f98SvMXDMJQi-164" source="QoIc9SU_f98SvMXDMJQi-194">
          <mxGeometry relative="1" as="geometry">
            <mxPoint x="73" y="37" as="targetPoint" />
          </mxGeometry>
        </mxCell>
        <mxCell id="QoIc9SU_f98SvMXDMJQi-193" style="edgeStyle=orthogonalEdgeStyle;rounded=0;orthogonalLoop=1;jettySize=auto;html=1;exitX=0;exitY=0.645;exitDx=0;exitDy=0;exitPerimeter=0;curved=1;endArrow=none;endFill=0;strokeWidth=1.5;" edge="1" parent="QoIc9SU_f98SvMXDMJQi-164" source="QoIc9SU_f98SvMXDMJQi-194">
          <mxGeometry relative="1" as="geometry">
            <mxPoint x="3" y="37" as="targetPoint" />
          </mxGeometry>
        </mxCell>
        <mxCell id="QoIc9SU_f98SvMXDMJQi-194" value="" style="pointerEvents=1;verticalLabelPosition=bottom;shadow=0;dashed=0;align=center;html=1;verticalAlign=top;shape=mxgraph.electrical.inductors.inductor_5;direction=west;strokeWidth=1.5;rotation=-180;" vertex="1" parent="QoIc9SU_f98SvMXDMJQi-164">
          <mxGeometry x="13" y="8" width="50" height="14" as="geometry" />
        </mxCell>
        <mxCell id="QoIc9SU_f98SvMXDMJQi-195" value="" style="rounded=0;orthogonalLoop=1;jettySize=auto;html=1;exitX=1;exitY=0.645;exitDx=0;exitDy=0;exitPerimeter=0;endArrow=none;endFill=0;strokeWidth=1.5;" edge="1" parent="QoIc9SU_f98SvMXDMJQi-164">
          <mxGeometry relative="1" as="geometry">
            <mxPoint x="73" y="77" as="targetPoint" />
            <mxPoint x="73" y="37" as="sourcePoint" />
          </mxGeometry>
        </mxCell>
        <mxCell id="QoIc9SU_f98SvMXDMJQi-196" value="" style="rounded=1;whiteSpace=wrap;html=1;strokeColor=none;strokeWidth=1.5;rotation=-180;" vertex="1" parent="QoIc9SU_f98SvMXDMJQi-164">
          <mxGeometry y="3" width="40" height="76" as="geometry" />
        </mxCell>
        <mxCell id="QoIc9SU_f98SvMXDMJQi-259" value="" style="curved=1;endArrow=classic;html=1;rounded=0;entryX=1;entryY=1;entryDx=0;entryDy=0;exitX=0;exitY=1;exitDx=0;exitDy=0;" edge="1" parent="QoIc9SU_f98SvMXDMJQi-164">
          <mxGeometry width="50" height="50" relative="1" as="geometry">
            <mxPoint x="228.82233047033503" y="68.6776695296652" as="sourcePoint" />
            <mxPoint x="264.1776695296652" y="68.6776695296652" as="targetPoint" />
            <Array as="points">
              <mxPoint x="221.5" y="61" />
              <mxPoint x="221.5" y="46" />
              <mxPoint x="221.5" y="56" />
              <mxPoint x="221.5" y="41" />
              <mxPoint x="236.5" y="26" />
              <mxPoint x="261.5" y="26" />
              <mxPoint x="276.5" y="51" />
            </Array>
          </mxGeometry>
        </mxCell>
        <mxCell id="QoIc9SU_f98SvMXDMJQi-263" value="$$i_c(t)$$" style="text;html=1;align=center;verticalAlign=middle;whiteSpace=wrap;rounded=0;fontSize=14;" vertex="1" parent="QoIc9SU_f98SvMXDMJQi-164">
          <mxGeometry x="218" y="31" width="59" height="32" as="geometry" />
        </mxCell>
        <mxCell id="QoIc9SU_f98SvMXDMJQi-197" value="" style="shape=tape;whiteSpace=wrap;html=1;rotation=90;size=0.23333333333333334;strokeColor=none;" vertex="1" parent="1">
          <mxGeometry x="627" y="208" width="66" height="44" as="geometry" />
        </mxCell>
        <mxCell id="QoIc9SU_f98SvMXDMJQi-198" value="" style="endArrow=classic;html=1;rounded=0;strokeWidth=2;" edge="1" parent="1">
          <mxGeometry width="50" height="50" relative="1" as="geometry">
            <mxPoint x="555" y="240" as="sourcePoint" />
            <mxPoint x="640" y="240" as="targetPoint" />
          </mxGeometry>
        </mxCell>
        <mxCell id="QoIc9SU_f98SvMXDMJQi-200" value="&lt;div&gt;&lt;font&gt;&lt;svg style=&quot;vertical-align: -0.025ex;&quot; xmlns=&quot;http://www.w3.org/2000/svg&quot; width=&quot;1.407ex&quot; height=&quot;1.027ex&quot; role=&quot;img&quot; viewBox=&quot;0 -443 622 454&quot; xmlns:xlink=&quot;http://www.w3.org/1999/xlink&quot;&gt;&lt;defs&gt;&lt;path id=&quot;MJX-2-TEX-I-1D714&quot; d=&quot;M495 384Q495 406 514 424T555 443Q574 443 589 425T604 364Q604 334 592 278T555 155T483 38T377 -11Q297 -11 267 66Q266 68 260 61Q201 -11 125 -11Q15 -11 15 139Q15 230 56 325T123 434Q135 441 147 436Q160 429 160 418Q160 406 140 379T94 306T62 208Q61 202 61 187Q61 124 85 100T143 76Q201 76 245 129L253 137V156Q258 297 317 297Q348 297 348 261Q348 243 338 213T318 158L308 135Q309 133 310 129T318 115T334 97T358 83T393 76Q456 76 501 148T546 274Q546 305 533 325T508 357T495 384Z&quot;&gt;&lt;/path&gt;&lt;/defs&gt;&lt;/svg&gt;&lt;/font&gt;&lt;font&gt;&lt;svg style=&quot;vertical-align: -0.025ex;&quot; xmlns=&quot;http://www.w3.org/2000/svg&quot; width=&quot;1.407ex&quot; height=&quot;1.027ex&quot; role=&quot;img&quot; viewBox=&quot;0 -443 622 454&quot; xmlns:xlink=&quot;http://www.w3.org/1999/xlink&quot;&gt;&lt;g stroke=&quot;currentColor&quot; fill=&quot;currentColor&quot; stroke-width=&quot;0&quot; transform=&quot;scale(1,-1)&quot;&gt;&lt;g data-mml-node=&quot;math&quot;&gt;&lt;g data-mml-node=&quot;mi&quot;&gt;&lt;use data-c=&quot;1D714&quot; xlink:href=&quot;#MJX-2-TEX-I-1D714&quot;&gt;&lt;/use&gt;&lt;/g&gt;&lt;/g&gt;&lt;/g&gt;&lt;/svg&gt;&lt;/font&gt;&lt;/div&gt;" style="edgeLabel;html=1;align=center;verticalAlign=middle;resizable=0;points=[];fontSize=20;" vertex="1" connectable="0" parent="QoIc9SU_f98SvMXDMJQi-198">
          <mxGeometry x="0.0763" relative="1" as="geometry">
            <mxPoint x="-10" y="-15" as="offset" />
          </mxGeometry>
        </mxCell>
        <mxCell id="QoIc9SU_f98SvMXDMJQi-203" value="1" style="rounded=0;whiteSpace=wrap;html=1;rotation=0;strokeWidth=0;fillColor=#DA7557;fontStyle=1;fontColor=#FFFFFF;gradientColor=#AC5D45;gradientDirection=radial;strokeColor=#CB6D51;fontSize=20;" vertex="1" parent="1">
          <mxGeometry x="1434" y="200" width="60" height="60" as="geometry" />
        </mxCell>
        <mxCell id="QoIc9SU_f98SvMXDMJQi-204" value="" style="shape=tape;whiteSpace=wrap;html=1;rotation=90;size=0.23333333333333334;strokeColor=none;" vertex="1" parent="1">
          <mxGeometry x="1470" y="207" width="66" height="44" as="geometry" />
        </mxCell>
        <mxCell id="QoIc9SU_f98SvMXDMJQi-205" value="2" style="rounded=0;whiteSpace=wrap;html=1;rotation=0;strokeWidth=0;fillColor=#DA7557;fontStyle=1;fontColor=#FFFFFF;gradientColor=#AC5D45;gradientDirection=radial;strokeColor=#CB6D51;fontSize=20;" vertex="1" parent="1">
          <mxGeometry x="1364" y="200" width="60" height="60" as="geometry" />
        </mxCell>
        <mxCell id="QoIc9SU_f98SvMXDMJQi-206" value="3" style="rounded=0;whiteSpace=wrap;html=1;rotation=0;strokeWidth=0;fillColor=#DA7557;fontStyle=1;fontColor=#FFFFFF;gradientColor=#AC5D45;gradientDirection=radial;strokeColor=#CB6D51;fontSize=20;" vertex="1" parent="1">
          <mxGeometry x="1294" y="200" width="60" height="60" as="geometry" />
        </mxCell>
        <mxCell id="QoIc9SU_f98SvMXDMJQi-207" value="4" style="rounded=0;whiteSpace=wrap;html=1;rotation=0;strokeWidth=0;fillColor=#DA7557;fontStyle=1;fontColor=#FFFFFF;gradientColor=#AC5D45;gradientDirection=radial;strokeColor=#CB6D51;fontSize=20;" vertex="1" parent="1">
          <mxGeometry x="1224" y="200" width="60" height="60" as="geometry" />
        </mxCell>
        <mxCell id="QoIc9SU_f98SvMXDMJQi-208" value="5" style="rounded=0;whiteSpace=wrap;html=1;rotation=0;strokeWidth=0;fillColor=#DA7557;fontStyle=1;fontColor=#FFFFFF;gradientColor=#AC5D45;gradientDirection=radial;strokeColor=#CB6D51;fontSize=20;" vertex="1" parent="1">
          <mxGeometry x="1154" y="200" width="60" height="60" as="geometry" />
        </mxCell>
        <mxCell id="QoIc9SU_f98SvMXDMJQi-209" value="escova" style="rounded=0;whiteSpace=wrap;html=1;rotation=0;strokeWidth=0;fillColor=#666666;fontStyle=1;fontColor=#FFFFFF;" vertex="1" parent="1">
          <mxGeometry x="1294" y="260" width="60" height="60" as="geometry" />
        </mxCell>
        <mxCell id="QoIc9SU_f98SvMXDMJQi-210" value="" style="group;rotation=-180;" vertex="1" connectable="0" parent="1">
          <mxGeometry x="1112" y="124" width="424" height="84" as="geometry" />
        </mxCell>
        <mxCell id="QoIc9SU_f98SvMXDMJQi-211" style="rounded=1;orthogonalLoop=1;jettySize=auto;html=1;endArrow=none;endFill=0;curved=0;strokeWidth=1.5;" edge="1" parent="QoIc9SU_f98SvMXDMJQi-210">
          <mxGeometry relative="1" as="geometry">
            <mxPoint x="283" y="77" as="targetPoint" />
            <mxPoint x="283" y="37" as="sourcePoint" />
            <Array as="points">
              <mxPoint x="283" y="77" />
            </Array>
          </mxGeometry>
        </mxCell>
        <mxCell id="QoIc9SU_f98SvMXDMJQi-212" style="rounded=0;orthogonalLoop=1;jettySize=auto;html=1;exitX=1;exitY=0.645;exitDx=0;exitDy=0;exitPerimeter=0;endArrow=none;endFill=0;edgeStyle=orthogonalEdgeStyle;curved=1;strokeWidth=1.5;" edge="1" parent="QoIc9SU_f98SvMXDMJQi-210" source="QoIc9SU_f98SvMXDMJQi-214">
          <mxGeometry relative="1" as="geometry">
            <mxPoint x="353" y="37" as="targetPoint" />
          </mxGeometry>
        </mxCell>
        <mxCell id="QoIc9SU_f98SvMXDMJQi-213" style="edgeStyle=orthogonalEdgeStyle;rounded=0;orthogonalLoop=1;jettySize=auto;html=1;exitX=0;exitY=0.645;exitDx=0;exitDy=0;exitPerimeter=0;curved=1;endArrow=none;endFill=0;strokeWidth=1.5;" edge="1" parent="QoIc9SU_f98SvMXDMJQi-210" source="QoIc9SU_f98SvMXDMJQi-214">
          <mxGeometry relative="1" as="geometry">
            <mxPoint x="283" y="37" as="targetPoint" />
          </mxGeometry>
        </mxCell>
        <mxCell id="QoIc9SU_f98SvMXDMJQi-214" value="" style="pointerEvents=1;verticalLabelPosition=bottom;shadow=0;dashed=0;align=center;html=1;verticalAlign=top;shape=mxgraph.electrical.inductors.inductor_5;direction=west;strokeWidth=1.5;rotation=-180;" vertex="1" parent="QoIc9SU_f98SvMXDMJQi-210">
          <mxGeometry x="293" y="8" width="50" height="14" as="geometry" />
        </mxCell>
        <mxCell id="QoIc9SU_f98SvMXDMJQi-215" value="" style="rounded=0;orthogonalLoop=1;jettySize=auto;html=1;exitX=1;exitY=0.645;exitDx=0;exitDy=0;exitPerimeter=0;endArrow=none;endFill=0;strokeWidth=1.5;" edge="1" parent="QoIc9SU_f98SvMXDMJQi-210">
          <mxGeometry relative="1" as="geometry">
            <mxPoint x="353" y="77" as="targetPoint" />
            <mxPoint x="353" y="37" as="sourcePoint" />
          </mxGeometry>
        </mxCell>
        <mxCell id="QoIc9SU_f98SvMXDMJQi-216" style="rounded=1;orthogonalLoop=1;jettySize=auto;html=1;endArrow=none;endFill=0;curved=0;strokeWidth=1.5;" edge="1" parent="QoIc9SU_f98SvMXDMJQi-210">
          <mxGeometry relative="1" as="geometry">
            <mxPoint x="213" y="76" as="targetPoint" />
            <mxPoint x="213" y="36" as="sourcePoint" />
            <Array as="points">
              <mxPoint x="213" y="76" />
            </Array>
          </mxGeometry>
        </mxCell>
        <mxCell id="QoIc9SU_f98SvMXDMJQi-217" style="rounded=0;orthogonalLoop=1;jettySize=auto;html=1;exitX=1;exitY=0.645;exitDx=0;exitDy=0;exitPerimeter=0;endArrow=none;endFill=0;edgeStyle=orthogonalEdgeStyle;curved=1;strokeWidth=1.5;" edge="1" parent="QoIc9SU_f98SvMXDMJQi-210" source="QoIc9SU_f98SvMXDMJQi-219">
          <mxGeometry relative="1" as="geometry">
            <mxPoint x="283" y="36" as="targetPoint" />
          </mxGeometry>
        </mxCell>
        <mxCell id="QoIc9SU_f98SvMXDMJQi-218" style="edgeStyle=orthogonalEdgeStyle;rounded=0;orthogonalLoop=1;jettySize=auto;html=1;exitX=0;exitY=0.645;exitDx=0;exitDy=0;exitPerimeter=0;curved=1;endArrow=none;endFill=0;strokeWidth=1.5;" edge="1" parent="QoIc9SU_f98SvMXDMJQi-210" source="QoIc9SU_f98SvMXDMJQi-219">
          <mxGeometry relative="1" as="geometry">
            <mxPoint x="213" y="36" as="targetPoint" />
          </mxGeometry>
        </mxCell>
        <mxCell id="QoIc9SU_f98SvMXDMJQi-219" value="" style="pointerEvents=1;verticalLabelPosition=bottom;shadow=0;dashed=0;align=center;html=1;verticalAlign=top;shape=mxgraph.electrical.inductors.inductor_5;direction=west;strokeWidth=1.5;rotation=-180;" vertex="1" parent="QoIc9SU_f98SvMXDMJQi-210">
          <mxGeometry x="223" y="8" width="50" height="14" as="geometry" />
        </mxCell>
        <mxCell id="QoIc9SU_f98SvMXDMJQi-220" value="" style="rounded=0;orthogonalLoop=1;jettySize=auto;html=1;exitX=1;exitY=0.645;exitDx=0;exitDy=0;exitPerimeter=0;endArrow=none;endFill=0;strokeWidth=1.5;" edge="1" parent="QoIc9SU_f98SvMXDMJQi-210">
          <mxGeometry relative="1" as="geometry">
            <mxPoint x="283" y="76" as="targetPoint" />
            <mxPoint x="283" y="36" as="sourcePoint" />
          </mxGeometry>
        </mxCell>
        <mxCell id="QoIc9SU_f98SvMXDMJQi-221" style="rounded=1;orthogonalLoop=1;jettySize=auto;html=1;endArrow=none;endFill=0;curved=0;strokeWidth=1.5;" edge="1" parent="QoIc9SU_f98SvMXDMJQi-210">
          <mxGeometry relative="1" as="geometry">
            <mxPoint x="143" y="77" as="targetPoint" />
            <mxPoint x="143" y="37" as="sourcePoint" />
            <Array as="points">
              <mxPoint x="143" y="77" />
            </Array>
          </mxGeometry>
        </mxCell>
        <mxCell id="QoIc9SU_f98SvMXDMJQi-222" style="rounded=0;orthogonalLoop=1;jettySize=auto;html=1;exitX=1;exitY=0.645;exitDx=0;exitDy=0;exitPerimeter=0;endArrow=none;endFill=0;edgeStyle=orthogonalEdgeStyle;curved=1;strokeWidth=1.5;" edge="1" parent="QoIc9SU_f98SvMXDMJQi-210" source="QoIc9SU_f98SvMXDMJQi-224">
          <mxGeometry relative="1" as="geometry">
            <mxPoint x="213" y="37" as="targetPoint" />
          </mxGeometry>
        </mxCell>
        <mxCell id="QoIc9SU_f98SvMXDMJQi-223" style="edgeStyle=orthogonalEdgeStyle;rounded=0;orthogonalLoop=1;jettySize=auto;html=1;exitX=0;exitY=0.645;exitDx=0;exitDy=0;exitPerimeter=0;curved=1;endArrow=none;endFill=0;strokeWidth=1.5;" edge="1" parent="QoIc9SU_f98SvMXDMJQi-210" source="QoIc9SU_f98SvMXDMJQi-224">
          <mxGeometry relative="1" as="geometry">
            <mxPoint x="143" y="37" as="targetPoint" />
          </mxGeometry>
        </mxCell>
        <mxCell id="QoIc9SU_f98SvMXDMJQi-224" value="" style="pointerEvents=1;verticalLabelPosition=bottom;shadow=0;dashed=0;align=center;html=1;verticalAlign=top;shape=mxgraph.electrical.inductors.inductor_5;direction=west;strokeWidth=1.5;rotation=-180;" vertex="1" parent="QoIc9SU_f98SvMXDMJQi-210">
          <mxGeometry x="153" y="8" width="50" height="14" as="geometry" />
        </mxCell>
        <mxCell id="QoIc9SU_f98SvMXDMJQi-225" value="" style="rounded=0;orthogonalLoop=1;jettySize=auto;html=1;exitX=1;exitY=0.645;exitDx=0;exitDy=0;exitPerimeter=0;endArrow=none;endFill=0;strokeWidth=1.5;" edge="1" parent="QoIc9SU_f98SvMXDMJQi-210">
          <mxGeometry relative="1" as="geometry">
            <mxPoint x="213" y="77" as="targetPoint" />
            <mxPoint x="213" y="37" as="sourcePoint" />
          </mxGeometry>
        </mxCell>
        <mxCell id="QoIc9SU_f98SvMXDMJQi-226" style="rounded=1;orthogonalLoop=1;jettySize=auto;html=1;endArrow=none;endFill=0;curved=0;strokeWidth=1.5;" edge="1" parent="QoIc9SU_f98SvMXDMJQi-210">
          <mxGeometry relative="1" as="geometry">
            <mxPoint x="73" y="77" as="targetPoint" />
            <mxPoint x="73" y="37" as="sourcePoint" />
            <Array as="points">
              <mxPoint x="73" y="77" />
            </Array>
          </mxGeometry>
        </mxCell>
        <mxCell id="QoIc9SU_f98SvMXDMJQi-227" style="rounded=0;orthogonalLoop=1;jettySize=auto;html=1;exitX=1;exitY=0.645;exitDx=0;exitDy=0;exitPerimeter=0;endArrow=none;endFill=0;edgeStyle=orthogonalEdgeStyle;curved=1;strokeWidth=1.5;" edge="1" parent="QoIc9SU_f98SvMXDMJQi-210" source="QoIc9SU_f98SvMXDMJQi-229">
          <mxGeometry relative="1" as="geometry">
            <mxPoint x="143" y="37" as="targetPoint" />
          </mxGeometry>
        </mxCell>
        <mxCell id="QoIc9SU_f98SvMXDMJQi-228" style="edgeStyle=orthogonalEdgeStyle;rounded=0;orthogonalLoop=1;jettySize=auto;html=1;exitX=0;exitY=0.645;exitDx=0;exitDy=0;exitPerimeter=0;curved=1;endArrow=none;endFill=0;strokeWidth=1.5;" edge="1" parent="QoIc9SU_f98SvMXDMJQi-210" source="QoIc9SU_f98SvMXDMJQi-229">
          <mxGeometry relative="1" as="geometry">
            <mxPoint x="73" y="37" as="targetPoint" />
          </mxGeometry>
        </mxCell>
        <mxCell id="QoIc9SU_f98SvMXDMJQi-229" value="" style="pointerEvents=1;verticalLabelPosition=bottom;shadow=0;dashed=0;align=center;html=1;verticalAlign=top;shape=mxgraph.electrical.inductors.inductor_5;direction=west;strokeWidth=1.5;rotation=-180;" vertex="1" parent="QoIc9SU_f98SvMXDMJQi-210">
          <mxGeometry x="83" y="8" width="50" height="14" as="geometry" />
        </mxCell>
        <mxCell id="QoIc9SU_f98SvMXDMJQi-230" value="" style="rounded=0;orthogonalLoop=1;jettySize=auto;html=1;exitX=1;exitY=0.645;exitDx=0;exitDy=0;exitPerimeter=0;endArrow=none;endFill=0;strokeWidth=1.5;" edge="1" parent="QoIc9SU_f98SvMXDMJQi-210">
          <mxGeometry relative="1" as="geometry">
            <mxPoint x="143" y="77" as="targetPoint" />
            <mxPoint x="143" y="37" as="sourcePoint" />
          </mxGeometry>
        </mxCell>
        <mxCell id="QoIc9SU_f98SvMXDMJQi-231" style="rounded=1;orthogonalLoop=1;jettySize=auto;html=1;endArrow=none;endFill=0;curved=0;strokeWidth=1.5;" edge="1" parent="QoIc9SU_f98SvMXDMJQi-210">
          <mxGeometry relative="1" as="geometry">
            <mxPoint x="353" y="77" as="targetPoint" />
            <mxPoint x="353" y="37" as="sourcePoint" />
            <Array as="points">
              <mxPoint x="353" y="77" />
            </Array>
          </mxGeometry>
        </mxCell>
        <mxCell id="QoIc9SU_f98SvMXDMJQi-232" style="rounded=0;orthogonalLoop=1;jettySize=auto;html=1;exitX=1;exitY=0.645;exitDx=0;exitDy=0;exitPerimeter=0;endArrow=none;endFill=0;edgeStyle=orthogonalEdgeStyle;curved=1;strokeWidth=1.5;" edge="1" parent="QoIc9SU_f98SvMXDMJQi-210" source="QoIc9SU_f98SvMXDMJQi-234">
          <mxGeometry relative="1" as="geometry">
            <mxPoint x="423" y="37" as="targetPoint" />
          </mxGeometry>
        </mxCell>
        <mxCell id="QoIc9SU_f98SvMXDMJQi-233" style="edgeStyle=orthogonalEdgeStyle;rounded=0;orthogonalLoop=1;jettySize=auto;html=1;exitX=0;exitY=0.645;exitDx=0;exitDy=0;exitPerimeter=0;curved=1;endArrow=none;endFill=0;strokeWidth=1.5;" edge="1" parent="QoIc9SU_f98SvMXDMJQi-210" source="QoIc9SU_f98SvMXDMJQi-234">
          <mxGeometry relative="1" as="geometry">
            <mxPoint x="353" y="37" as="targetPoint" />
          </mxGeometry>
        </mxCell>
        <mxCell id="QoIc9SU_f98SvMXDMJQi-234" value="" style="pointerEvents=1;verticalLabelPosition=bottom;shadow=0;dashed=0;align=center;html=1;verticalAlign=top;shape=mxgraph.electrical.inductors.inductor_5;direction=west;strokeWidth=1.5;rotation=-180;" vertex="1" parent="QoIc9SU_f98SvMXDMJQi-210">
          <mxGeometry x="363" y="8" width="50" height="14" as="geometry" />
        </mxCell>
        <mxCell id="QoIc9SU_f98SvMXDMJQi-235" value="" style="rounded=0;orthogonalLoop=1;jettySize=auto;html=1;exitX=1;exitY=0.645;exitDx=0;exitDy=0;exitPerimeter=0;endArrow=none;endFill=0;strokeWidth=1.5;" edge="1" parent="QoIc9SU_f98SvMXDMJQi-210">
          <mxGeometry relative="1" as="geometry">
            <mxPoint x="423" y="77" as="targetPoint" />
            <mxPoint x="423" y="37" as="sourcePoint" />
          </mxGeometry>
        </mxCell>
        <mxCell id="QoIc9SU_f98SvMXDMJQi-236" value="" style="rounded=1;whiteSpace=wrap;html=1;strokeColor=none;strokeWidth=1.5;rotation=-180;" vertex="1" parent="QoIc9SU_f98SvMXDMJQi-210">
          <mxGeometry x="386" width="38" height="84" as="geometry" />
        </mxCell>
        <mxCell id="QoIc9SU_f98SvMXDMJQi-237" style="rounded=1;orthogonalLoop=1;jettySize=auto;html=1;endArrow=none;endFill=0;curved=0;strokeWidth=1.5;" edge="1" parent="QoIc9SU_f98SvMXDMJQi-210">
          <mxGeometry relative="1" as="geometry">
            <mxPoint x="3" y="77" as="targetPoint" />
            <mxPoint x="3" y="37" as="sourcePoint" />
            <Array as="points">
              <mxPoint x="3" y="77" />
            </Array>
          </mxGeometry>
        </mxCell>
        <mxCell id="QoIc9SU_f98SvMXDMJQi-238" style="rounded=0;orthogonalLoop=1;jettySize=auto;html=1;exitX=1;exitY=0.645;exitDx=0;exitDy=0;exitPerimeter=0;endArrow=none;endFill=0;edgeStyle=orthogonalEdgeStyle;curved=1;strokeWidth=1.5;" edge="1" parent="QoIc9SU_f98SvMXDMJQi-210" source="QoIc9SU_f98SvMXDMJQi-240">
          <mxGeometry relative="1" as="geometry">
            <mxPoint x="73" y="37" as="targetPoint" />
          </mxGeometry>
        </mxCell>
        <mxCell id="QoIc9SU_f98SvMXDMJQi-239" style="edgeStyle=orthogonalEdgeStyle;rounded=0;orthogonalLoop=1;jettySize=auto;html=1;exitX=0;exitY=0.645;exitDx=0;exitDy=0;exitPerimeter=0;curved=1;endArrow=none;endFill=0;strokeWidth=1.5;" edge="1" parent="QoIc9SU_f98SvMXDMJQi-210" source="QoIc9SU_f98SvMXDMJQi-240">
          <mxGeometry relative="1" as="geometry">
            <mxPoint x="3" y="37" as="targetPoint" />
          </mxGeometry>
        </mxCell>
        <mxCell id="QoIc9SU_f98SvMXDMJQi-240" value="" style="pointerEvents=1;verticalLabelPosition=bottom;shadow=0;dashed=0;align=center;html=1;verticalAlign=top;shape=mxgraph.electrical.inductors.inductor_5;direction=west;strokeWidth=1.5;rotation=-180;" vertex="1" parent="QoIc9SU_f98SvMXDMJQi-210">
          <mxGeometry x="13" y="8" width="50" height="14" as="geometry" />
        </mxCell>
        <mxCell id="QoIc9SU_f98SvMXDMJQi-241" value="" style="rounded=0;orthogonalLoop=1;jettySize=auto;html=1;exitX=1;exitY=0.645;exitDx=0;exitDy=0;exitPerimeter=0;endArrow=none;endFill=0;strokeWidth=1.5;" edge="1" parent="QoIc9SU_f98SvMXDMJQi-210">
          <mxGeometry relative="1" as="geometry">
            <mxPoint x="73" y="77" as="targetPoint" />
            <mxPoint x="73" y="37" as="sourcePoint" />
          </mxGeometry>
        </mxCell>
        <mxCell id="QoIc9SU_f98SvMXDMJQi-242" value="" style="rounded=1;whiteSpace=wrap;html=1;strokeColor=none;strokeWidth=1.5;rotation=-180;" vertex="1" parent="QoIc9SU_f98SvMXDMJQi-210">
          <mxGeometry y="3" width="40" height="76" as="geometry" />
        </mxCell>
        <mxCell id="QoIc9SU_f98SvMXDMJQi-243" value="" style="shape=tape;whiteSpace=wrap;html=1;rotation=90;size=0.23333333333333334;strokeColor=none;" vertex="1" parent="1">
          <mxGeometry x="1112" y="208" width="66" height="44" as="geometry" />
        </mxCell>
        <mxCell id="QoIc9SU_f98SvMXDMJQi-244" value="" style="endArrow=classic;html=1;rounded=0;strokeWidth=2;" edge="1" parent="1">
          <mxGeometry width="50" height="50" relative="1" as="geometry">
            <mxPoint x="1040" y="240" as="sourcePoint" />
            <mxPoint x="1125" y="240" as="targetPoint" />
          </mxGeometry>
        </mxCell>
        <mxCell id="QoIc9SU_f98SvMXDMJQi-245" value="&lt;div&gt;&lt;font&gt;&lt;svg style=&quot;vertical-align: -0.025ex;&quot; xmlns=&quot;http://www.w3.org/2000/svg&quot; width=&quot;1.407ex&quot; height=&quot;1.027ex&quot; role=&quot;img&quot; viewBox=&quot;0 -443 622 454&quot; xmlns:xlink=&quot;http://www.w3.org/1999/xlink&quot;&gt;&lt;defs&gt;&lt;path id=&quot;MJX-2-TEX-I-1D714&quot; d=&quot;M495 384Q495 406 514 424T555 443Q574 443 589 425T604 364Q604 334 592 278T555 155T483 38T377 -11Q297 -11 267 66Q266 68 260 61Q201 -11 125 -11Q15 -11 15 139Q15 230 56 325T123 434Q135 441 147 436Q160 429 160 418Q160 406 140 379T94 306T62 208Q61 202 61 187Q61 124 85 100T143 76Q201 76 245 129L253 137V156Q258 297 317 297Q348 297 348 261Q348 243 338 213T318 158L308 135Q309 133 310 129T318 115T334 97T358 83T393 76Q456 76 501 148T546 274Q546 305 533 325T508 357T495 384Z&quot;&gt;&lt;/path&gt;&lt;/defs&gt;&lt;/svg&gt;&lt;/font&gt;&lt;font&gt;&lt;svg style=&quot;vertical-align: -0.025ex;&quot; xmlns=&quot;http://www.w3.org/2000/svg&quot; width=&quot;1.407ex&quot; height=&quot;1.027ex&quot; role=&quot;img&quot; viewBox=&quot;0 -443 622 454&quot; xmlns:xlink=&quot;http://www.w3.org/1999/xlink&quot;&gt;&lt;g stroke=&quot;currentColor&quot; fill=&quot;currentColor&quot; stroke-width=&quot;0&quot; transform=&quot;scale(1,-1)&quot;&gt;&lt;g data-mml-node=&quot;math&quot;&gt;&lt;g data-mml-node=&quot;mi&quot;&gt;&lt;use data-c=&quot;1D714&quot; xlink:href=&quot;#MJX-2-TEX-I-1D714&quot;&gt;&lt;/use&gt;&lt;/g&gt;&lt;/g&gt;&lt;/g&gt;&lt;/svg&gt;&lt;/font&gt;&lt;/div&gt;" style="edgeLabel;html=1;align=center;verticalAlign=middle;resizable=0;points=[];fontSize=20;" vertex="1" connectable="0" parent="QoIc9SU_f98SvMXDMJQi-244">
          <mxGeometry x="0.0763" relative="1" as="geometry">
            <mxPoint x="-10" y="-15" as="offset" />
          </mxGeometry>
        </mxCell>
        <mxCell id="QoIc9SU_f98SvMXDMJQi-246" value="" style="endArrow=block;html=1;rounded=0;endFill=1;" edge="1" parent="1">
          <mxGeometry width="50" height="50" relative="1" as="geometry">
            <mxPoint x="374" y="120.49" as="sourcePoint" />
            <mxPoint x="414" y="120" as="targetPoint" />
          </mxGeometry>
        </mxCell>
        <mxCell id="QoIc9SU_f98SvMXDMJQi-249" value="$$I/2$$" style="text;html=1;align=center;verticalAlign=middle;whiteSpace=wrap;rounded=0;fontSize=18;" vertex="1" parent="1">
          <mxGeometry x="362" y="89" width="60" height="30" as="geometry" />
        </mxCell>
        <mxCell id="QoIc9SU_f98SvMXDMJQi-247" value="" style="endArrow=none;html=1;rounded=0;endFill=0;startArrow=block;startFill=1;" edge="1" parent="1">
          <mxGeometry width="50" height="50" relative="1" as="geometry">
            <mxPoint x="440" y="120.49" as="sourcePoint" />
            <mxPoint x="480" y="120" as="targetPoint" />
          </mxGeometry>
        </mxCell>
        <mxCell id="QoIc9SU_f98SvMXDMJQi-250" value="$$I/2$$" style="text;html=1;align=center;verticalAlign=middle;whiteSpace=wrap;rounded=0;fontSize=18;" vertex="1" parent="1">
          <mxGeometry x="434" y="89" width="60" height="30" as="geometry" />
        </mxCell>
        <mxCell id="QoIc9SU_f98SvMXDMJQi-251" value="" style="endArrow=none;html=1;rounded=0;endFill=0;exitX=0.5;exitY=1;exitDx=0;exitDy=0;strokeWidth=3;" edge="1" parent="1" source="QoIc9SU_f98SvMXDMJQi-71">
          <mxGeometry width="50" height="50" relative="1" as="geometry">
            <mxPoint x="460" y="330" as="sourcePoint" />
            <mxPoint x="426" y="375" as="targetPoint" />
          </mxGeometry>
        </mxCell>
        <mxCell id="QoIc9SU_f98SvMXDMJQi-252" value="$$I$$" style="text;html=1;align=center;verticalAlign=middle;whiteSpace=wrap;rounded=0;fontSize=18;" vertex="1" parent="1">
          <mxGeometry x="420" y="327" width="60" height="30" as="geometry" />
        </mxCell>
        <mxCell id="QoIc9SU_f98SvMXDMJQi-253" value="" style="endArrow=block;html=1;rounded=0;endFill=1;" edge="1" parent="1">
          <mxGeometry width="50" height="50" relative="1" as="geometry">
            <mxPoint x="439" y="330.49" as="sourcePoint" />
            <mxPoint x="439" y="363" as="targetPoint" />
          </mxGeometry>
        </mxCell>
        <mxCell id="QoIc9SU_f98SvMXDMJQi-255" value="" style="endArrow=none;html=1;rounded=0;endFill=0;startArrow=block;startFill=1;" edge="1" parent="1">
          <mxGeometry width="50" height="50" relative="1" as="geometry">
            <mxPoint x="922" y="120.49" as="sourcePoint" />
            <mxPoint x="962" y="120" as="targetPoint" />
          </mxGeometry>
        </mxCell>
        <mxCell id="QoIc9SU_f98SvMXDMJQi-256" value="$$I/2$$" style="text;html=1;align=center;verticalAlign=middle;whiteSpace=wrap;rounded=0;fontSize=18;" vertex="1" parent="1">
          <mxGeometry x="916" y="89" width="60" height="30" as="geometry" />
        </mxCell>
        <mxCell id="QoIc9SU_f98SvMXDMJQi-257" value="" style="endArrow=block;html=1;rounded=0;endFill=1;" edge="1" parent="1">
          <mxGeometry width="50" height="50" relative="1" as="geometry">
            <mxPoint x="789" y="120.49" as="sourcePoint" />
            <mxPoint x="829" y="120" as="targetPoint" />
          </mxGeometry>
        </mxCell>
        <mxCell id="QoIc9SU_f98SvMXDMJQi-258" value="$$I/2$$" style="text;html=1;align=center;verticalAlign=middle;whiteSpace=wrap;rounded=0;fontSize=18;" vertex="1" parent="1">
          <mxGeometry x="777" y="89" width="60" height="30" as="geometry" />
        </mxCell>
        <mxCell id="QoIc9SU_f98SvMXDMJQi-264" value="" style="endArrow=none;html=1;rounded=0;endFill=0;exitX=0.5;exitY=1;exitDx=0;exitDy=0;strokeWidth=3;" edge="1" parent="1">
          <mxGeometry width="50" height="50" relative="1" as="geometry">
            <mxPoint x="873" y="320" as="sourcePoint" />
            <mxPoint x="873" y="375" as="targetPoint" />
          </mxGeometry>
        </mxCell>
        <mxCell id="QoIc9SU_f98SvMXDMJQi-265" value="$$I$$" style="text;html=1;align=center;verticalAlign=middle;whiteSpace=wrap;rounded=0;fontSize=18;" vertex="1" parent="1">
          <mxGeometry x="867" y="327" width="60" height="30" as="geometry" />
        </mxCell>
        <mxCell id="QoIc9SU_f98SvMXDMJQi-266" value="" style="endArrow=block;html=1;rounded=0;endFill=1;" edge="1" parent="1">
          <mxGeometry width="50" height="50" relative="1" as="geometry">
            <mxPoint x="886" y="330.49" as="sourcePoint" />
            <mxPoint x="886" y="363" as="targetPoint" />
          </mxGeometry>
        </mxCell>
        <mxCell id="QoIc9SU_f98SvMXDMJQi-267" value="" style="endArrow=none;html=1;rounded=0;endFill=0;exitX=0.5;exitY=1;exitDx=0;exitDy=0;strokeWidth=3;" edge="1" parent="1">
          <mxGeometry width="50" height="50" relative="1" as="geometry">
            <mxPoint x="1325" y="320" as="sourcePoint" />
            <mxPoint x="1325" y="375" as="targetPoint" />
          </mxGeometry>
        </mxCell>
        <mxCell id="QoIc9SU_f98SvMXDMJQi-268" value="$$I$$" style="text;html=1;align=center;verticalAlign=middle;whiteSpace=wrap;rounded=0;fontSize=18;" vertex="1" parent="1">
          <mxGeometry x="1319" y="327" width="60" height="30" as="geometry" />
        </mxCell>
        <mxCell id="QoIc9SU_f98SvMXDMJQi-269" value="" style="endArrow=block;html=1;rounded=0;endFill=1;" edge="1" parent="1">
          <mxGeometry width="50" height="50" relative="1" as="geometry">
            <mxPoint x="1338" y="330.49" as="sourcePoint" />
            <mxPoint x="1338" y="363" as="targetPoint" />
          </mxGeometry>
        </mxCell>
        <mxCell id="QoIc9SU_f98SvMXDMJQi-270" value="" style="endArrow=classic;html=1;rounded=0;strokeWidth=2;" edge="1" parent="1">
          <mxGeometry width="50" height="50" relative="1" as="geometry">
            <mxPoint x="1523" y="240" as="sourcePoint" />
            <mxPoint x="1608" y="240" as="targetPoint" />
          </mxGeometry>
        </mxCell>
        <mxCell id="QoIc9SU_f98SvMXDMJQi-271" value="&lt;div&gt;&lt;font&gt;&lt;svg style=&quot;vertical-align: -0.025ex;&quot; xmlns=&quot;http://www.w3.org/2000/svg&quot; width=&quot;1.407ex&quot; height=&quot;1.027ex&quot; role=&quot;img&quot; viewBox=&quot;0 -443 622 454&quot; xmlns:xlink=&quot;http://www.w3.org/1999/xlink&quot;&gt;&lt;defs&gt;&lt;path id=&quot;MJX-2-TEX-I-1D714&quot; d=&quot;M495 384Q495 406 514 424T555 443Q574 443 589 425T604 364Q604 334 592 278T555 155T483 38T377 -11Q297 -11 267 66Q266 68 260 61Q201 -11 125 -11Q15 -11 15 139Q15 230 56 325T123 434Q135 441 147 436Q160 429 160 418Q160 406 140 379T94 306T62 208Q61 202 61 187Q61 124 85 100T143 76Q201 76 245 129L253 137V156Q258 297 317 297Q348 297 348 261Q348 243 338 213T318 158L308 135Q309 133 310 129T318 115T334 97T358 83T393 76Q456 76 501 148T546 274Q546 305 533 325T508 357T495 384Z&quot;&gt;&lt;/path&gt;&lt;/defs&gt;&lt;/svg&gt;&lt;/font&gt;&lt;font&gt;&lt;svg style=&quot;vertical-align: -0.025ex;&quot; xmlns=&quot;http://www.w3.org/2000/svg&quot; width=&quot;1.407ex&quot; height=&quot;1.027ex&quot; role=&quot;img&quot; viewBox=&quot;0 -443 622 454&quot; xmlns:xlink=&quot;http://www.w3.org/1999/xlink&quot;&gt;&lt;g stroke=&quot;currentColor&quot; fill=&quot;currentColor&quot; stroke-width=&quot;0&quot; transform=&quot;scale(1,-1)&quot;&gt;&lt;g data-mml-node=&quot;math&quot;&gt;&lt;g data-mml-node=&quot;mi&quot;&gt;&lt;use data-c=&quot;1D714&quot; xlink:href=&quot;#MJX-2-TEX-I-1D714&quot;&gt;&lt;/use&gt;&lt;/g&gt;&lt;/g&gt;&lt;/g&gt;&lt;/svg&gt;&lt;/font&gt;&lt;/div&gt;" style="edgeLabel;html=1;align=center;verticalAlign=middle;resizable=0;points=[];fontSize=20;" vertex="1" connectable="0" parent="QoIc9SU_f98SvMXDMJQi-270">
          <mxGeometry x="0.0763" relative="1" as="geometry">
            <mxPoint x="-10" y="-15" as="offset" />
          </mxGeometry>
        </mxCell>
        <mxCell id="QoIc9SU_f98SvMXDMJQi-272" value="" style="endArrow=block;html=1;rounded=0;endFill=1;" edge="1" parent="1">
          <mxGeometry width="50" height="50" relative="1" as="geometry">
            <mxPoint x="1270" y="120.49" as="sourcePoint" />
            <mxPoint x="1310" y="120" as="targetPoint" />
          </mxGeometry>
        </mxCell>
        <mxCell id="QoIc9SU_f98SvMXDMJQi-273" value="$$I/2$$" style="text;html=1;align=center;verticalAlign=middle;whiteSpace=wrap;rounded=0;fontSize=18;" vertex="1" parent="1">
          <mxGeometry x="1258" y="89" width="60" height="30" as="geometry" />
        </mxCell>
        <mxCell id="QoIc9SU_f98SvMXDMJQi-274" value="" style="endArrow=none;html=1;rounded=0;endFill=0;startArrow=block;startFill=1;" edge="1" parent="1">
          <mxGeometry width="50" height="50" relative="1" as="geometry">
            <mxPoint x="1336" y="120.49" as="sourcePoint" />
            <mxPoint x="1376" y="120" as="targetPoint" />
          </mxGeometry>
        </mxCell>
        <mxCell id="QoIc9SU_f98SvMXDMJQi-275" value="$$I/2$$" style="text;html=1;align=center;verticalAlign=middle;whiteSpace=wrap;rounded=0;fontSize=18;" vertex="1" parent="1">
          <mxGeometry x="1330" y="89" width="60" height="30" as="geometry" />
        </mxCell>
        <mxCell id="QoIc9SU_f98SvMXDMJQi-276" value="(a)" style="text;html=1;align=center;verticalAlign=middle;whiteSpace=wrap;rounded=0;fontSize=20;" vertex="1" parent="1">
          <mxGeometry x="326" y="415" width="60" height="30" as="geometry" />
        </mxCell>
        <mxCell id="QoIc9SU_f98SvMXDMJQi-277" value="(b)" style="text;html=1;align=center;verticalAlign=middle;whiteSpace=wrap;rounded=0;fontSize=20;" vertex="1" parent="1">
          <mxGeometry x="810" y="415" width="60" height="30" as="geometry" />
        </mxCell>
        <mxCell id="QoIc9SU_f98SvMXDMJQi-278" value="(c)" style="text;html=1;align=center;verticalAlign=middle;whiteSpace=wrap;rounded=0;fontSize=20;" vertex="1" parent="1">
          <mxGeometry x="1294" y="415" width="60" height="30" as="geometry" />
        </mxCell>
      </root>
    </mxGraphModel>
  </diagram>
</mxfile>
